<?xml version="1.0" encoding="utf-8"?>
<!-- Generator: Adobe Illustrator 22.1.0, SVG Export Plug-In . SVG Version: 6.00 Build 0)  -->
<svg version="1.1" id="Layer_1" xmlns="http://www.w3.org/2000/svg" xmlns:xlink="http://www.w3.org/1999/xlink" x="0px" y="0px"
	 viewBox="0 0 46.398 36.801" style="enable-background:new 0 0 46.398 36.801;" xml:space="preserve">
<style type="text/css">
	.st0{fill:#D3D3D3;}
	.st1{fill:#9B9B9B;}
	.st2{fill:none;stroke:#0075B0;stroke-miterlimit:10;}
	.st3{fill:#0075B0;}
</style>
<g>
	<rect x="0.801" y="0.801" class="st0" width="44.801" height="35.199"/>
	<path class="st1" d="M46.398,36.801H0V0h46.398V36.801z M1.602,35.199h43.199V1.602H1.602V35.199z M1.602,35.199"/>
	<circle class="st2" cx="23.199" cy="18.398" r="10.158"/>
	<path class="st3" d="M20,24V12.801l8.801,5.597L20,24z M20,24"/>
	<rect x="0.801" y="0.801" class="st0" width="8" height="8.801"/>
	<path class="st1" d="M9.602,10.398H0V0h9.602V10.398z M1.602,8.801H8V1.602H1.602V8.801z M1.602,8.801"/>
	<rect x="0.801" y="9.602" class="st0" width="8" height="8.797"/>
	<path class="st1" d="M9.602,19.199H0V8.801h9.602V19.199z M1.602,17.602H8v-7.204H1.602V17.602z M1.602,17.602"/>
	<rect x="0.801" y="18.398" class="st0" width="8" height="8.801"/>
	<path class="st1" d="M9.602,28H0V17.602h9.602V28z M1.602,26.398H8v-7.199H1.602V26.398z M1.602,26.398"/>
	<rect x="0.801" y="27.199" class="st0" width="8" height="8.801"/>
	<path class="st1" d="M9.602,36.801H0V26.398h9.602V36.801z M1.602,35.199H8V28H1.602V35.199z M1.602,35.199"/>
	<rect x="37.602" y="0.801" class="st0" width="8" height="8.801"/>
	<path class="st1" d="M46.398,10.398h-9.597V0h9.597V10.398z M38.398,8.801h6.403V1.602h-6.403V8.801z M38.398,8.801"/>
	<rect x="37.602" y="9.602" class="st0" width="8" height="8.797"/>
	<path class="st1" d="M46.398,19.199h-9.597V8.801h9.597V19.199z M38.398,17.602h6.403v-7.204h-6.403V17.602z M38.398,17.602"/>
	<rect x="37.602" y="18.398" class="st0" width="8" height="8.801"/>
	<path class="st1" d="M46.398,28h-9.597V17.602h9.597V28z M38.398,26.398h6.403v-7.199h-6.403V26.398z M38.398,26.398"/>
	<rect x="37.602" y="27.199" class="st0" width="8" height="8.801"/>
	<path class="st1" d="M46.398,36.801h-9.597V26.398h9.597V36.801z M38.398,35.199h6.403V28h-6.403V35.199z M38.398,35.199"/>
</g>
</svg>
